<svg xmlns="http://www.w3.org/2000/svg" xmlns:xlink="http://www.w3.org/1999/xlink" width="329" zoomAndPan="magnify" viewBox="0 0 246.75 63.749997" height="85" preserveAspectRatio="xMidYMid meet" version="1.0"><defs><g/><clipPath id="62b2a1a6d1"><path d="M 0.371094 14.152344 L 30.730469 14.152344 L 30.730469 49.230469 L 0.371094 49.230469 Z M 0.371094 14.152344 " clip-rule="nonzero"/></clipPath><clipPath id="6d67284dc0"><path d="M 6.082031 22 L 24.757812 22 L 24.757812 36.941406 L 6.082031 36.941406 Z M 6.082031 22 " clip-rule="nonzero"/></clipPath></defs><g clip-path="url(#62b2a1a6d1)"><path fill="#ffffff" d="M 28.441406 30.207031 C 27.746094 33.832031 26.417969 37.054688 24.5 39.789062 C 22.292969 42.929688 19.273438 45.457031 15.511719 47.316406 C 11.78125 45.460938 8.789062 42.933594 6.597656 39.796875 C 4.6875 37.058594 3.367188 33.832031 2.667969 30.207031 C 2.035156 26.929688 2.039062 23.933594 2.152344 21.996094 C 2.191406 21.355469 2.242188 20.789062 2.296875 20.316406 C 3.296875 20.140625 4.632812 19.882812 6.125 19.519531 C 8.75 18.882812 12.378906 17.796875 15.566406 16.121094 C 18.75 17.796875 22.371094 18.882812 24.992188 19.519531 C 26.480469 19.882812 27.800781 20.140625 28.792969 20.316406 C 28.847656 20.789062 28.902344 21.355469 28.941406 22.003906 C 29.0625 23.9375 29.074219 26.933594 28.441406 30.207031 Z M 30.660156 21.894531 C 30.574219 20.480469 30.421875 19.410156 30.324219 18.816406 C 29.457031 18.691406 27.632812 18.390625 25.398438 17.847656 C 22.652344 17.179688 18.761719 16 15.566406 14.152344 C 12.371094 16 8.472656 17.175781 5.71875 17.84375 C 3.488281 18.382812 1.632812 18.6875 0.757812 18.816406 C 0.664062 19.402344 0.515625 20.46875 0.433594 21.894531 C 0.3125 23.929688 0.308594 27.082031 0.972656 30.535156 C 1.71875 34.398438 3.136719 37.847656 5.183594 40.78125 C 7.691406 44.375 11.164062 47.214844 15.507812 49.230469 C 19.890625 47.214844 23.386719 44.371094 25.910156 40.78125 C 27.96875 37.84375 29.390625 34.398438 30.136719 30.535156 C 30.800781 27.082031 30.789062 23.929688 30.660156 21.894531 " fill-opacity="1" fill-rule="nonzero"/></g><g clip-path="url(#6d67284dc0)"><path fill="#ffffff" d="M 24.925781 28.917969 L 24.703125 28.292969 C 24.582031 27.949219 24.199219 27.667969 23.859375 27.667969 L 23.074219 27.667969 C 22.492188 26.039062 21.789062 24.070312 21.566406 23.605469 C 21.246094 22.882812 20.21875 22.5625 19.65625 22.398438 C 19.65625 22.398438 18.710938 22.039062 15.554688 22.039062 C 12.394531 22.039062 11.46875 22.398438 11.46875 22.398438 C 10.808594 22.621094 9.882812 22.941406 9.519531 23.628906 C 9.339844 23.96875 8.613281 25.980469 8.03125 27.667969 L 7.265625 27.667969 C 6.925781 27.667969 6.542969 27.949219 6.421875 28.292969 L 6.199219 28.917969 C 6.082031 29.257812 6.261719 29.539062 6.601562 29.539062 L 7.386719 29.539062 C 7.289062 29.820312 7.226562 29.980469 7.226562 29.980469 C 7.167969 30.082031 7.125 30.546875 7.125 30.6875 L 7.125 36.378906 C 7.125 36.738281 7.429688 37.042969 7.789062 37.042969 L 10.203125 37.042969 C 10.566406 37.042969 10.867188 36.738281 10.867188 36.378906 L 10.867188 35.171875 L 20.257812 35.171875 L 20.257812 36.378906 C 20.257812 36.738281 20.5625 37.042969 20.921875 37.042969 L 23.355469 37.042969 C 23.71875 37.042969 24.019531 36.738281 24.019531 36.378906 L 24.019531 30.6875 C 24.019531 30.566406 23.980469 30.082031 23.917969 29.980469 C 23.917969 29.980469 23.859375 29.820312 23.757812 29.539062 L 24.523438 29.539062 C 24.84375 29.539062 25.027344 29.257812 24.925781 28.917969 Z M 10.867188 32.414062 L 10.0625 31.871094 C 8.574219 31.753906 8.394531 32.273438 8.070312 31.710938 L 8.070312 31.027344 C 8.070312 30.363281 8.453125 30.34375 8.875 30.34375 C 9.277344 30.34375 10.082031 30.6875 10.625 30.925781 C 11.207031 31.1875 11.632812 30.96875 11.851562 31.832031 C 11.832031 32.234375 11.609375 32.414062 10.867188 32.414062 Z M 9.460938 27.929688 C 9.960938 25.878906 10.808594 24.453125 10.925781 24.109375 C 11.007812 23.867188 10.808594 23.425781 15.574219 23.425781 C 20.339844 23.425781 20.078125 24.070312 20.097656 24.089844 C 20.320312 24.550781 21.203125 26.0625 21.667969 27.929688 C 21.667969 27.929688 19.878906 28.171875 15.792969 28.171875 C 11.710938 28.171875 9.460938 27.929688 9.460938 27.929688 Z M 19.292969 31.832031 C 20.238281 30.667969 19.9375 31.1875 20.519531 30.925781 C 21.042969 30.6875 21.867188 30.34375 22.269531 30.34375 C 22.691406 30.34375 23.074219 30.363281 23.074219 31.027344 L 23.074219 31.710938 C 22.773438 32.253906 22.511719 31.773438 21.003906 31.914062 L 20.257812 32.394531 C 19.515625 32.414062 19.03125 32.132812 19.292969 31.832031 Z M 19.292969 31.832031 " fill-opacity="1" fill-rule="nonzero"/></g><g fill="#ffffff" fill-opacity="1"><g transform="translate(38.468348, 42.991628)"><g><path d="M 11.234375 1.4375 L 0.359375 -23.953125 L 3.03125 -23.953125 L 11.234375 -4.65625 L 19.421875 -23.953125 L 22.09375 -23.953125 Z M 11.234375 1.4375 "/></g></g></g><g fill="#ffffff" fill-opacity="1"><g transform="translate(59.291058, 42.991628)"><g><path d="M 17.796875 -8.109375 L 17.796875 -6.796875 L 4.15625 -6.796875 C 4.394531 -5.460938 5.039062 -4.375 6.09375 -3.53125 C 7.175781 -2.65625 8.375 -2.21875 9.6875 -2.21875 C 10.582031 -2.21875 11.441406 -2.429688 12.265625 -2.859375 C 13.054688 -3.253906 13.722656 -3.816406 14.265625 -4.546875 L 17.09375 -4.546875 C 16.4375 -3.066406 15.445312 -1.90625 14.125 -1.0625 C 12.789062 -0.1875 11.441406 0.25 10.078125 0.25 C 8.691406 0.25 7.515625 0.0351562 6.546875 -0.390625 C 5.566406 -0.804688 4.710938 -1.378906 3.984375 -2.109375 C 2.378906 -3.660156 1.578125 -5.566406 1.578125 -7.828125 C 1.578125 -10.054688 2.378906 -11.96875 3.984375 -13.5625 C 5.554688 -15.132812 7.457031 -15.921875 9.6875 -15.921875 C 11.851562 -15.921875 13.742188 -15.160156 15.359375 -13.640625 C 16.984375 -12.085938 17.796875 -10.242188 17.796875 -8.109375 Z M 15.1875 -8.921875 C 14.90625 -10.234375 14.25 -11.320312 13.21875 -12.1875 C 12.175781 -13.03125 11 -13.453125 9.6875 -13.453125 C 7.664062 -13.453125 6.082031 -12.550781 4.9375 -10.75 C 4.582031 -10.1875 4.332031 -9.578125 4.1875 -8.921875 Z M 15.1875 -8.921875 "/></g></g></g><g fill="#ffffff" fill-opacity="1"><g transform="translate(76.872301, 42.991628)"><g><path d="M 5.109375 0 L 2.640625 0 L 2.640625 -26.421875 L 5.109375 -26.421875 L 5.109375 -12.828125 C 5.628906 -13.691406 6.285156 -14.40625 7.078125 -14.96875 C 7.921875 -15.53125 8.894531 -15.8125 10 -15.8125 C 11.101562 -15.8125 12 -15.660156 12.6875 -15.359375 C 13.363281 -15.035156 13.9375 -14.601562 14.40625 -14.0625 C 15.34375 -12.957031 15.8125 -11.5 15.8125 -9.6875 L 15.8125 0 L 13.359375 0 L 13.359375 -9.6875 C 13.359375 -10.695312 13.132812 -11.566406 12.6875 -12.296875 C 12.21875 -13.003906 11.453125 -13.359375 10.390625 -13.359375 C 9.335938 -13.359375 8.484375 -13.191406 7.828125 -12.859375 C 7.160156 -12.503906 6.628906 -12.023438 6.234375 -11.421875 C 5.484375 -10.285156 5.109375 -8.640625 5.109375 -6.484375 Z M 5.109375 0 "/></g></g></g><g fill="#ffffff" fill-opacity="1"><g transform="translate(93.185147, 42.991628)"><g><path d="M 5.140625 -20.859375 C 5.453125 -20.554688 5.609375 -20.191406 5.609375 -19.765625 C 5.609375 -19.316406 5.453125 -18.941406 5.140625 -18.640625 C 4.835938 -18.335938 4.472656 -18.1875 4.046875 -18.1875 C 3.597656 -18.1875 3.222656 -18.335938 2.921875 -18.640625 C 2.617188 -18.941406 2.46875 -19.316406 2.46875 -19.765625 C 2.46875 -20.191406 2.617188 -20.554688 2.921875 -20.859375 C 3.222656 -21.160156 3.597656 -21.3125 4.046875 -21.3125 C 4.472656 -21.3125 4.835938 -21.160156 5.140625 -20.859375 Z M 5.28125 0 L 2.8125 0 L 2.8125 -15.5 L 5.28125 -15.5 Z M 5.28125 0 "/></g></g></g><g fill="#ffffff" fill-opacity="1"><g transform="translate(99.632659, 42.991628)"><g><path d="M 17.125 -9.9375 L 14.453125 -9.9375 C 14.023438 -10.925781 13.363281 -11.722656 12.46875 -12.328125 C 11.582031 -12.941406 10.679688 -13.25 9.765625 -13.25 C 8.847656 -13.25 8.0625 -13.109375 7.40625 -12.828125 C 6.738281 -12.523438 6.171875 -12.125 5.703125 -11.625 C 4.648438 -10.519531 4.125 -9.226562 4.125 -7.75 C 4.125 -6.25 4.648438 -4.957031 5.703125 -3.875 C 6.742188 -2.769531 8.015625 -2.21875 9.515625 -2.21875 C 10.503906 -2.21875 11.421875 -2.476562 12.265625 -3 C 13.085938 -3.507812 13.734375 -4.203125 14.203125 -5.078125 L 16.984375 -5.078125 C 16.109375 -2.585938 14.425781 -0.921875 11.9375 -0.078125 C 11.164062 0.210938 10.285156 0.359375 9.296875 0.359375 C 8.316406 0.359375 7.34375 0.132812 6.375 -0.3125 C 5.414062 -0.738281 4.582031 -1.328125 3.875 -2.078125 C 2.34375 -3.671875 1.578125 -5.5625 1.578125 -7.75 C 1.578125 -9.957031 2.34375 -11.847656 3.875 -13.421875 C 5.425781 -15.015625 7.304688 -15.8125 9.515625 -15.8125 C 11.296875 -15.8125 12.90625 -15.265625 14.34375 -14.171875 C 15.707031 -13.109375 16.632812 -11.695312 17.125 -9.9375 Z M 17.125 -9.9375 "/></g></g></g><g fill="#ffffff" fill-opacity="1"><g transform="translate(116.368313, 42.991628)"><g><path d="M 5.109375 0 L 2.640625 0 L 2.640625 -26.421875 L 5.109375 -26.421875 Z M 5.109375 0 "/></g></g></g><g fill="#ffffff" fill-opacity="1"><g transform="translate(122.498732, 42.991628)"><g><path d="M 14.96875 -7.75 C 14.96875 -9.25 14.453125 -10.566406 13.421875 -11.703125 C 12.367188 -12.828125 11.066406 -13.390625 9.515625 -13.390625 C 7.960938 -13.390625 6.671875 -12.828125 5.640625 -11.703125 C 4.578125 -10.566406 4.046875 -9.25 4.046875 -7.75 C 4.046875 -6.25 4.578125 -4.9375 5.640625 -3.8125 C 6.671875 -2.675781 7.960938 -2.109375 9.515625 -2.109375 C 11.066406 -2.109375 12.367188 -2.675781 13.421875 -3.8125 C 14.453125 -4.9375 14.96875 -6.25 14.96875 -7.75 Z M 17.4375 0 L 14.96875 0 L 14.96875 -2.640625 C 14.832031 -2.453125 14.691406 -2.273438 14.546875 -2.109375 C 13.066406 -0.460938 11.257812 0.359375 9.125 0.359375 C 6.988281 0.359375 5.191406 -0.460938 3.734375 -2.109375 C 2.296875 -3.710938 1.578125 -5.59375 1.578125 -7.75 C 1.578125 -9.914062 2.296875 -11.796875 3.734375 -13.390625 C 5.191406 -15.035156 6.988281 -15.859375 9.125 -15.859375 C 11.257812 -15.859375 13.066406 -15.035156 14.546875 -13.390625 C 14.691406 -13.222656 14.832031 -13.046875 14.96875 -12.859375 L 14.96875 -15.5 L 17.4375 -15.5 Z M 17.4375 0 "/></g></g></g><g fill="#ffffff" fill-opacity="1"><g transform="translate(140.960808, 42.991628)"><g><path d="M 5.140625 -20.859375 C 5.453125 -20.554688 5.609375 -20.191406 5.609375 -19.765625 C 5.609375 -19.316406 5.453125 -18.941406 5.140625 -18.640625 C 4.835938 -18.335938 4.472656 -18.1875 4.046875 -18.1875 C 3.597656 -18.1875 3.222656 -18.335938 2.921875 -18.640625 C 2.617188 -18.941406 2.46875 -19.316406 2.46875 -19.765625 C 2.46875 -20.191406 2.617188 -20.554688 2.921875 -20.859375 C 3.222656 -21.160156 3.597656 -21.3125 4.046875 -21.3125 C 4.472656 -21.3125 4.835938 -21.160156 5.140625 -20.859375 Z M 5.28125 0 L 2.8125 0 L 2.8125 -15.5 L 5.28125 -15.5 Z M 5.28125 0 "/></g></g></g><g fill="#ffffff" fill-opacity="1"><g transform="translate(147.408321, 42.991628)"><g><path d="M 22.296875 -0.078125 L 22.296875 -9.765625 C 22.296875 -11.359375 21.789062 -12.484375 20.78125 -13.140625 C 20.4375 -13.347656 19.898438 -13.453125 19.171875 -13.453125 C 18.441406 -13.453125 17.757812 -13.242188 17.125 -12.828125 C 16.488281 -12.398438 15.984375 -11.859375 15.609375 -11.203125 C 15.460938 -10.941406 15.332031 -10.660156 15.21875 -10.359375 C 15.21875 -10.171875 15.21875 -9.972656 15.21875 -9.765625 L 15.21875 -0.078125 L 12.75 -0.078125 L 12.75 -9.765625 C 12.75 -11.359375 12.242188 -12.484375 11.234375 -13.140625 C 10.890625 -13.347656 10.351562 -13.453125 9.625 -13.453125 C 8.894531 -13.453125 8.210938 -13.242188 7.578125 -12.828125 C 6.941406 -12.398438 6.4375 -11.859375 6.0625 -11.203125 C 5.570312 -10.335938 5.253906 -9.269531 5.109375 -8 L 5.109375 -0.078125 L 2.640625 -0.078125 L 2.640625 -15.578125 L 5.109375 -15.578125 L 5.109375 -13.109375 C 5.578125 -13.910156 6.164062 -14.554688 6.875 -15.046875 C 7.664062 -15.628906 8.601562 -15.921875 9.6875 -15.921875 C 10.769531 -15.921875 11.640625 -15.757812 12.296875 -15.4375 C 12.953125 -15.082031 13.503906 -14.625 13.953125 -14.0625 C 14.191406 -13.726562 14.40625 -13.363281 14.59375 -12.96875 C 15.0625 -13.8125 15.671875 -14.503906 16.421875 -15.046875 C 17.222656 -15.628906 18.160156 -15.921875 19.234375 -15.921875 C 20.316406 -15.921875 21.1875 -15.757812 21.84375 -15.4375 C 22.5 -15.082031 23.050781 -14.625 23.5 -14.0625 C 24.34375 -12.957031 24.765625 -11.523438 24.765625 -9.765625 L 24.765625 -0.078125 Z M 22.296875 -0.078125 "/></g></g></g><g fill="#ffffff" fill-opacity="1"><g transform="translate(172.670443, 42.991628)"><g><path d="M 4.890625 -2.21875 C 5.503906 -1.789062 6.304688 -1.578125 7.296875 -1.578125 C 9.546875 -1.578125 10.671875 -2.425781 10.671875 -4.125 C 10.671875 -5.113281 9.863281 -5.863281 8.25 -6.375 C 7.5625 -6.613281 6.832031 -6.828125 6.0625 -7.015625 C 5.257812 -7.203125 4.519531 -7.445312 3.84375 -7.75 C 3.039062 -8.125 2.441406 -8.59375 2.046875 -9.15625 C 1.640625 -9.71875 1.4375 -10.390625 1.4375 -11.171875 C 1.4375 -12.722656 1.976562 -13.882812 3.0625 -14.65625 C 4.144531 -15.457031 5.4375 -15.859375 6.9375 -15.859375 C 8.445312 -15.859375 9.691406 -15.550781 10.671875 -14.9375 C 11.660156 -14.320312 12.332031 -13.226562 12.6875 -11.65625 L 10.046875 -11.65625 C 9.765625 -12.53125 9.351562 -13.109375 8.8125 -13.390625 C 8.289062 -13.671875 7.644531 -13.8125 6.875 -13.8125 C 6.09375 -13.8125 5.429688 -13.644531 4.890625 -13.3125 C 4.328125 -12.96875 4.046875 -12.453125 4.046875 -11.765625 C 4.046875 -11.066406 4.28125 -10.550781 4.75 -10.21875 C 5.195312 -9.914062 5.765625 -9.644531 6.453125 -9.40625 C 7.128906 -9.195312 7.867188 -9.007812 8.671875 -8.84375 C 9.441406 -8.65625 10.179688 -8.394531 10.890625 -8.0625 C 12.484375 -7.3125 13.28125 -6.101562 13.28125 -4.4375 C 13.28125 -2.769531 12.679688 -1.535156 11.484375 -0.734375 C 10.878906 -0.335938 10.210938 -0.0351562 9.484375 0.171875 C 8.773438 0.359375 8 0.453125 7.15625 0.453125 C 3.5625 0.453125 1.492188 -1.140625 0.953125 -4.328125 L 3.5625 -4.328125 C 3.820312 -3.316406 4.265625 -2.613281 4.890625 -2.21875 Z M 4.890625 -2.21875 "/></g></g></g><g fill="#ffffff" fill-opacity="1"><g transform="translate(185.213318, 42.991628)"><g><path d="M 4.6875 0.359375 C 4.144531 0.359375 3.675781 0.15625 3.28125 -0.25 C 2.851562 -0.625 2.640625 -1.082031 2.640625 -1.625 C 2.640625 -2.164062 2.835938 -2.632812 3.234375 -3.03125 C 3.640625 -3.425781 4.125 -3.625 4.6875 -3.625 C 5.25 -3.625 5.742188 -3.4375 6.171875 -3.0625 C 6.566406 -2.664062 6.765625 -2.195312 6.765625 -1.65625 C 6.765625 -1.09375 6.550781 -0.625 6.125 -0.25 C 5.707031 0.15625 5.226562 0.359375 4.6875 0.359375 Z M 4.6875 0.359375 "/></g></g></g></svg>